<svg xmlns="http://www.w3.org/2000/svg" width="1200" height="620" viewBox="0 0 1200 620" role="img" aria-labelledby="title desc">
  <title id="title">Forklift Stockfish calibration curve</title>
  <desc id="desc">Forklift scored 50.4 percent against Stockfish UCI Elo 2500 and 43.3 percent against 2550 at 30+0.3, placing the interpolated 50 percent crossing near 2503 in this local test pool. Excluding six Stockfish-side timeout results from the 2500 rung gives a conservative sensitivity crossing of exactly 2500.</desc>
  <style>
    .bg { fill: #0a0b0b; }
    .frame { fill: none; stroke: #303332; stroke-width: 1; }
    .title { fill: #f3f4f1; font: 500 30px ui-monospace, SFMono-Regular, Consolas, monospace; }
    .sub { fill: #959a96; font: 400 16px ui-monospace, SFMono-Regular, Consolas, monospace; }
    .label { fill: #f3f4f1; font: 500 17px ui-monospace, SFMono-Regular, Consolas, monospace; }
    .small { fill: #a4a9a5; font: 400 14px ui-monospace, SFMono-Regular, Consolas, monospace; }
    .value { fill: #f3f4f1; font: 500 25px ui-monospace, SFMono-Regular, Consolas, monospace; }
    .win { fill: #9dce7a; }
    .draw { fill: #6d736f; }
    .loss { fill: #c77878; }
    .neutral { fill: #c8ccc7; }
    .accent { fill: #9dce7a; }
    .warning { fill: #d7ae68; }
    .threshold { stroke: #d7ae68; stroke-width: 2; stroke-dasharray: 6 5; }
    .grid { stroke: #242725; stroke-width: 1; }
    .curve { fill: none; stroke: #9dce7a; stroke-width: 3; }
    .ci { stroke: #a4a9a5; stroke-width: 2; }
    .point { fill: #9dce7a; stroke: #0a0b0b; stroke-width: 3; }
  </style>
  <rect class="bg" width="1200" height="620" rx="8"/>
  <rect class="frame" x="0.5" y="0.5" width="1199" height="619" rx="8"/>
  <text class="title" x="70" y="67">Forklift · Stockfish limited-strength calibration</text>
  <text class="sub" x="70" y="99">4,200 games · 600 per rung · 30+0.3 · one thread per engine · paired openings</text>
  <text class="value" x="1130" y="67" text-anchor="end">≈ 2503</text>
  <text class="sub" x="1130" y="99" text-anchor="end">local 50% crossing · bracketed</text>
  <line class="grid" x1="105.0" y1="455.00" x2="1130.0" y2="455.00"/>
  <text class="small" x="88" y="460.00" text-anchor="end">0%</text>
  <line class="grid" x1="105.0" y1="378.75" x2="1130.0" y2="378.75"/>
  <text class="small" x="88" y="383.75" text-anchor="end">25%</text>
  <line class="threshold" x1="105.0" y1="302.50" x2="1130.0" y2="302.50"/>
  <text class="small" x="88" y="307.50" text-anchor="end">50%</text>
  <line class="grid" x1="105.0" y1="226.25" x2="1130.0" y2="226.25"/>
  <text class="small" x="88" y="231.25" text-anchor="end">75%</text>
  <line class="grid" x1="105.0" y1="150.00" x2="1130.0" y2="150.00"/>
  <text class="small" x="88" y="155.00" text-anchor="end">100%</text>
  <line class="ci" x1="233.12" y1="237.96" x2="233.12" y2="259.90"/>
  <line class="ci" x1="226.12" y1="237.96" x2="240.12" y2="237.96"/>
  <line class="ci" x1="226.12" y1="259.90" x2="240.12" y2="259.90"/>
  <text class="small" x="233.12" y="480" text-anchor="middle">2250</text>
  <line class="ci" x1="361.25" y1="247.58" x2="361.25" y2="270.00"/>
  <line class="ci" x1="354.25" y1="247.58" x2="368.25" y2="247.58"/>
  <line class="ci" x1="354.25" y1="270.00" x2="368.25" y2="270.00"/>
  <text class="small" x="361.25" y="480" text-anchor="middle">2300</text>
  <line class="ci" x1="489.38" y1="252.41" x2="489.38" y2="275.27"/>
  <line class="ci" x1="482.38" y1="252.41" x2="496.38" y2="252.41"/>
  <line class="ci" x1="482.38" y1="275.27" x2="496.38" y2="275.27"/>
  <text class="small" x="489.38" y="480" text-anchor="middle">2350</text>
  <line class="ci" x1="617.50" y1="290.19" x2="617.50" y2="313.32"/>
  <line class="ci" x1="610.50" y1="290.19" x2="624.50" y2="290.19"/>
  <line class="ci" x1="610.50" y1="313.32" x2="624.50" y2="313.32"/>
  <text class="small" x="617.50" y="480" text-anchor="middle">2400</text>
  <line class="ci" x1="745.62" y1="283.72" x2="745.62" y2="306.62"/>
  <line class="ci" x1="738.62" y1="283.72" x2="752.62" y2="283.72"/>
  <line class="ci" x1="738.62" y1="306.62" x2="752.62" y2="306.62"/>
  <text class="small" x="745.62" y="480" text-anchor="middle">2450</text>
  <line class="ci" x1="873.75" y1="289.63" x2="873.75" y2="312.84"/>
  <line class="ci" x1="866.75" y1="289.63" x2="880.75" y2="289.63"/>
  <line class="ci" x1="866.75" y1="312.84" x2="880.75" y2="312.84"/>
  <text class="small" x="873.75" y="480" text-anchor="middle">2500</text>
  <line class="ci" x1="1001.88" y1="311.14" x2="1001.88" y2="334.29"/>
  <line class="ci" x1="994.88" y1="311.14" x2="1008.88" y2="311.14"/>
  <line class="ci" x1="994.88" y1="334.29" x2="1008.88" y2="334.29"/>
  <text class="small" x="1001.88" y="480" text-anchor="middle">2550</text>
  <path class="curve" d="M 233.12 248.51 L 361.25 258.58 L 489.38 263.76 L 617.50 301.89 L 745.62 295.18 L 873.75 301.28 L 1001.88 322.94"/>
  <circle class="point" cx="233.12" cy="248.51" r="7"/>
  <text class="label" x="233.12" y="234.51" text-anchor="middle">67.7%</text>
  <circle class="point" cx="361.25" cy="258.58" r="7"/>
  <text class="label" x="361.25" y="244.58" text-anchor="middle">64.4%</text>
  <circle class="point" cx="489.38" cy="263.76" r="7"/>
  <text class="label" x="489.38" y="249.76" text-anchor="middle">62.7%</text>
  <circle class="point" cx="617.50" cy="301.89" r="7"/>
  <text class="label" x="617.50" y="287.89" text-anchor="middle">50.2%</text>
  <circle class="point" cx="745.62" cy="295.18" r="7"/>
  <text class="label" x="745.62" y="281.18" text-anchor="middle">52.4%</text>
  <circle class="point" cx="873.75" cy="301.28" r="7"/>
  <text class="label" x="873.75" y="287.28" text-anchor="middle">50.4%</text>
  <circle class="point" cx="1001.88" cy="322.94" r="7"/>
  <text class="label" x="1001.88" y="308.94" text-anchor="middle">43.3%</text>
  <line class="threshold" x1="880.97" y1="302.50" x2="880.97" y2="455.0"/>
  <text class="small" x="617.50" y="515" text-anchor="middle">Stockfish 18 configured UCI_Elo</text>
  <text class="small" x="70" y="556">Whiskers transform Cute Chess relative-Elo uncertainty into score bounds.</text>
  <text class="small" x="1130" y="556" text-anchor="end">bracketed 2500–2550 · sensitivity ≈ 2500</text>
  <text class="small" x="70" y="584">This is a hardware-, opening- and time-control-specific Stockfish anchor—not FIDE, Chess.com or universal Elo.</text>
</svg>
